<?xml version="1.0" encoding="iso-8859-1"?>
<!-- Generator: Adobe Illustrator 19.0.0, SVG Export Plug-In . SVG Version: 6.00 Build 0)  -->
<svg version="1.1" id="Layer_1" xmlns="http://www.w3.org/2000/svg" xmlns:xlink="http://www.w3.org/1999/xlink" x="0px" y="0px"
	 viewBox="0 0 474.84 474.84" style="enable-background:new 0 0 474.84 474.84;" xml:space="preserve">
<g>
	<path style="fill:#FCB641;" d="M235.856,20.28c-8-7.736-19.584-12.28-31.584-12.28c-6.728,0-12.672,1.464-18.72,4.064
		C179.496,9.464,173.296,8,166.576,8c-20.512,0-38.488,13.128-49.528,33.184C88.296,47.488,66.44,79.72,66.44,118.632
		c0,3.224,0.224,6.384,0.52,9.504c-6.64,12.592-10.512,27.8-10.512,44.184c0,1.888,0.128,3.736,0.224,5.592
		c-7.328,12.984-11.696,28.92-11.696,46.216c0,21.408,6.648,40.8,17.4,54.984c-0.136,2.12-0.248,4.24-0.248,6.4
		c0,24.816,8.928,46.92,22.84,61.336c-0.968,5.576-1.528,11.36-1.528,17.312c0,43.432,27.272,78.648,60.92,78.648
		c1.928,0,3.832-0.144,5.712-0.368c11.096,15.008,25.688,24.4,43.024,24.4c17.192,0,34.76-9.232,42.76-24.016V20.28z"/>
</g>
<path style="fill:#4D4D4D;" d="M236.832,252.184c-14.232,0-25.2-4.528-32.6-13.472c-13.424-16.216-8.96-40.736-8.76-41.768
	c0.832-4.344,5.032-7.184,9.352-6.368c4.336,0.824,7.184,5,6.368,9.328l0,0c-0.032,0.184-3.24,18.272,5.4,28.648
	c4.272,5.136,10.896,7.624,20.24,7.624c4.416,0,8,3.576,8,8S241.248,252.184,236.832,252.184z"/>
<path style="fill:#E66032;" d="M235.856,20.28C243.856,12.544,257,8,269.008,8c6.728,0,13.456,1.464,19.504,4.064
	C294.56,9.464,301.152,8,307.88,8c20.512,0,38.68,13.128,49.72,33.184c28.752,6.304,50.704,38.536,50.704,77.448
	c0,3.224-0.176,6.384-0.472,9.504c6.64,12.592,10.536,27.8,10.536,44.184c0,1.888-0.112,3.736-0.216,5.592
	c7.328,12.984,11.704,28.92,11.704,46.216c0,21.408-6.648,40.8-17.4,54.984c0.136,2.12,0.248,4.24,0.248,6.4
	c0,24.816-8.928,46.92-22.84,61.336c0.968,5.576,1.528,11.36,1.528,17.312c0,43.432-27.272,78.648-60.92,78.648
	c-1.928,0-3.824-0.144-5.712-0.368c-11.096,15.008-27.256,24.4-44.592,24.4c-17.192,0-36.32-9.232-44.32-24.016V20.28H235.856z"/>
<g>
	<path style="fill:#4D4D4D;" d="M420.608,281.512c11.144-15.848,17.248-36.104,17.248-57.392c0-17.192-4-33.76-11.592-48.056
		c0.056-1.24,0.104-2.488,0.104-3.744c0-16.288-3.576-32.072-10.368-45.8c0.192-2.592,0.304-5.224,0.304-7.888
		c0-40.648-22.272-75.44-53.464-84.376C349.848,12.736,329.528,0,307.88,0c-6.576,0-13.08,1.168-19.376,3.464
		C270.752-2.952,249.832,0.4,235.872,10c-8.92-6.384-20.072-10-31.6-10c-6.392,0-12.424,1.104-18.728,3.448
		c-27.352-10.056-56.872,2.856-73.736,30.816c-31.128,8.928-53.36,43.72-53.36,84.376c0,2.672,0.144,5.304,0.352,7.912
		c-6.776,13.704-10.344,29.48-10.344,45.776c0,1.256,0.048,2.504,0.112,3.752c-7.584,14.288-11.584,30.848-11.584,48.048
		c0,21.288,6.112,41.544,17.256,57.4c-0.064,1.32-0.104,2.648-0.104,3.984c0,24.472,8.096,47.504,22.336,63.896
		c-0.68,4.952-1.032,9.896-1.032,14.752c0,47.784,30.92,86.648,68.92,86.648c0.688,0,1.368-0.016,2.056-0.048
		c12.928,15.768,28.984,24.072,46.68,24.072c11.84,0,23.392-3.816,32.88-10.168c1.376-0.472,2.512-1.328,3.44-2.424
		c2.368-1.856,4.52-3.912,6.52-6.096c10.704,11.32,27.376,18.696,44.24,18.696c18.088,0,35.44-8.72,48.224-24.072
		c0.688,0.032,1.384,0.048,2.08,0.048c38,0,68.92-38.864,68.92-86.648c0-4.832-0.352-9.776-1.04-14.752
		c14.248-16.4,22.344-39.44,22.344-63.896C420.704,284.16,420.672,282.832,420.608,281.512z M157.456,438.864
		c-1.88-8.384-10.352-52.608,14.72-75.104c3.288-2.944,3.56-8.008,0.608-11.296c-2.944-3.288-8.016-3.576-11.296-0.608
		c-26.792,24.04-24.144,64.112-21.152,82.664c-27.296-2.768-48.888-33.24-48.888-70.376c0-5.216,0.472-10.576,1.408-15.936
		c0.44-2.512-1.488-5.096-3.264-6.928c-13.096-13.56-21.736-33.888-21.736-55.776c0-0.072,0-0.136,0-0.208
		c16-3.056,23.12-8.936,33.392-18.28c8.128,8.056,23.824,20.528,39.664,20.528c1.984,0,4.264-0.192,6.256-0.624
		c4.32-0.912,7.224-5.168,6.296-9.496c-0.92-4.32-5.104-7.144-9.424-6.152c-10.024,2.072-23.544-8.816-31.12-16.352
		c7.36-10.656,12.152-24.144,11.44-41c-0.176-4.424-3.816-7.944-8.32-7.656c-4.416,0.184-7.84,3.912-7.648,8.328
		c1.568,37.184-30.08,51.176-42.672,55.264c-8.232-12.8-12.744-28.816-12.744-45.744c0-15.296,3.688-29.912,10.664-42.28
		c0.744-1.32,1.104-2.832,1.016-4.352l-0.056-1.104c-0.08-1.344-0.16-2.696-0.16-4.064c0-14.56,3.32-28.552,9.592-40.464
		c0.72-1.376,1.032-2.928,0.888-4.48c-0.272-2.864-0.488-5.784-0.488-8.752c0-29.872,13.816-55.68,34.032-65.904
		c0.104,16.76,4.872,30.56,14.408,41.824c4.032,4.76,8.6,8.488,13.296,11.464c-12.888,32.544,16.088,62.848,17.408,64.192
		c1.56,1.608,3.64,2.416,5.712,2.416c2.008,0,4.016-0.76,5.576-2.272c3.16-3.072,3.232-8.136,0.168-11.304
		c-0.24-0.248-22.208-23.368-14.384-46.088c12.68,4.376,23.448,4.4,24.208,4.4c0.112,0,0.216,0,0.328,0
		c4.272,0,7.816-1.808,7.992-6.112c0.176-4.416-3.256-6.568-7.672-6.744c-0.256-0.008-25.584-1.272-40.416-18.8
		c-8.696-10.272-12.072-24.544-10.12-42.208C138.424,20.336,160.552,10,182.384,19.4c2.016,0.856,4.304,0.856,6.32,0
		c5.488-2.36,10.288-3.416,15.56-3.416c8.64,0,17.224,2.912,23.584,7.904V104.8c-2.56-0.928-4.624-2.336-6.216-4.248
		c-5.416-6.496-4.76-18.032-4.048-21.92c0.808-4.336-2.04-8.504-6.368-9.328c-4.336-0.816-8.528,2.024-9.352,6.368
		c-0.168,0.864-3.904,21.376,7.416,35.048c4.608,5.576,10.864,9.088,18.576,10.592v319.352c-1.8,2.872-4.144,5.48-6.832,7.792
		c-9.128-3.16-12.944-17.584-12.944-23.88c0-4.424-3.584-8-8-8s-8,3.576-8,8c0,8.168,3.568,23.128,12.976,32.44
		c-3.872,1.136-7.904,1.824-11.96,1.824C176.488,458.824,164.688,448.248,157.456,438.864z M384.112,341.28
		c-1.776,1.832-2.56,4.408-2.128,6.92c0.936,5.4,1.416,10.768,1.416,15.944c0,34.768-18.928,63.688-43.744,69.512
		c8.024-15.072,17.064-40.096,4.792-62.432c-0.056-0.112-0.168-0.168-0.232-0.272c13.016-13.632,23.512-35.816,18.008-71.704
		c-0.664-4.368-4.768-7.36-9.12-6.696c-4.368,0.664-7.368,4.752-6.696,9.12c9.616,62.816-37.864,73.464-39.96,73.888
		c-4.312,0.872-7.12,5.072-6.264,9.4c0.76,3.808,4.104,6.448,7.84,6.448c0.512,0,1.04-0.048,1.56-0.152
		c0.256-0.056,10.488-2.312,21.968-9.784c10.704,24.48-12.88,55.744-13.136,56.064c-0.016,0.016-0.016,0.04-0.024,0.056
		c-0.016,0.024-0.048,0.04-0.064,0.072c-9.936,13.448-23.848,21.16-38.168,21.16c-14.648,0-29.56-7.552-36.32-18.176v-58.944
		c9.144-1.096,16.496-4.664,21.704-10.96c11.32-13.672,7.584-34.184,7.424-35.056c-0.824-4.336-5.016-7.16-9.352-6.368
		c-4.344,0.832-7.192,5.008-6.368,9.352c0.68,3.592,1.408,15.312-4.024,21.864c-2.192,2.648-5.328,4.288-9.384,5.08V250.208
		c6.312,0.872,11.08,3.224,14.392,7.2c8.64,10.376,5.44,28.456,5.4,28.64c-0.808,4.328,2.04,8.504,6.376,9.328
		c0.496,0.096,1.008,0.144,1.504,0.144c3.768,0,7.128-2.672,7.848-6.504c0.192-1.032,4.664-25.536-8.76-41.76
		c-6.32-7.64-15.408-11.856-26.76-12.976V117.8c0.576-1.104,0.976-2.304,0.976-3.632s-0.4-2.528-0.976-3.632V23.96
		c6.424-4.84,16.096-7.96,25.152-7.96c5.504,0,11.16,1.176,16.352,3.416c2.016,0.856,4.304,0.856,6.32,0
		c5.256-2.264,10.712-3.416,16.2-3.416c16.736,0,32.704,10.848,42.712,29.04c1.112,2.016,3.04,3.464,5.296,3.952
		c25.32,5.552,44.416,35.496,44.416,69.64c0,2.968-0.168,5.88-0.44,8.76c-0.144,1.544,0.168,3.104,0.888,4.48
		c6.288,11.912,9.608,25.904,9.608,40.456c0,1.608-0.096,3.192-0.192,5.152c-0.088,1.52,0.264,3.04,1.016,4.368
		c6.984,12.368,10.672,26.992,10.672,42.28c0,9.352-1.376,18.432-3.992,26.84c-4.448-21.784-14.592-37.968-29.464-46.392
		c-15.168-8.6-33.008-7.632-50.2,2.8c-3.776,2.296-4.984,7.16-2.696,10.936c2.296,3.792,7.224,4.856,10.992,2.584
		c12.016-7.296,24.088-8.44,34.024-2.808c15.144,8.584,24.096,30.784,23.936,60.112c0,0.208,0.104,0.36,0.112,0.56
		c-0.016,0.288-0.12,0.56-0.096,0.848c0.128,1.952,0.232,3.912,0.232,5.896C404.704,307.384,397.2,327.72,384.112,341.28z"/>
	<path style="fill:#4D4D4D;" d="M345.832,103.344c6.664-2.568,13.24-6.848,19.376-13.544c2.984-3.256,2.768-8.32-0.496-11.304
		c-3.264-2.976-8.32-2.76-11.304,0.496c-23.76,25.912-55.096-0.448-56.496-1.648c-3.336-2.888-8.376-2.536-11.28,0.8
		c-2.896,3.336-2.544,8.392,0.792,11.288c9.008,7.832,25.304,17.016,42.808,17.016c0.216,0,0.44-0.024,0.656-0.032
		c0.112,10.44-1.512,34.456-18.456,38.056c-4.32,0.92-7.08,5.168-6.168,9.496c0.808,3.76,4.128,6.336,7.824,6.336
		c0.544,0,1.112-0.056,1.672-0.168C345.696,153.536,346.376,115.176,345.832,103.344z"/>
</g>
<g>
</g>
<g>
</g>
<g>
</g>
<g>
</g>
<g>
</g>
<g>
</g>
<g>
</g>
<g>
</g>
<g>
</g>
<g>
</g>
<g>
</g>
<g>
</g>
<g>
</g>
<g>
</g>
<g>
</g>
</svg>
